<svg width="26" height="27" viewBox="0 0 26 27" fill="none" xmlns="http://www.w3.org/2000/svg">
<g clip-path="url(#clip0_383_190)">
<path fill-rule="evenodd" clip-rule="evenodd" d="M20.7437 6.18749H5.78006L4.50154 3.89581C4.35803 3.63857 4.08655 3.47916 3.79199 3.47916H2.16699C1.71826 3.47916 1.35449 3.84293 1.35449 4.29166C1.35449 4.74038 1.71826 5.10416 2.16699 5.10416H3.31489L4.57664 7.36578L7.48656 13.8043L7.48954 13.8108L7.74585 14.3779L4.82427 17.4942C4.61419 17.7184 4.54843 18.0418 4.65431 18.33C4.76019 18.6184 5.01959 18.8224 5.32476 18.8573L7.98773 19.1616C11.3187 19.5423 14.6821 19.5423 18.0129 19.1616L20.676 18.8573C21.1217 18.8063 21.4419 18.4036 21.391 17.9577C21.3399 17.5119 20.9373 17.1918 20.4915 17.2428L17.8284 17.5471C14.6201 17.9137 11.3805 17.9137 8.17225 17.5471L7.11543 17.4263L9.25976 15.1391C9.28051 15.1169 9.29977 15.0939 9.31756 15.0702L10.1331 15.1763C11.276 15.3251 12.4311 15.3542 13.58 15.2633C16.2596 15.0514 18.7431 13.7763 20.477 11.7223L21.1031 10.9804C21.1242 10.9555 21.1437 10.9294 21.1616 10.9021L22.3288 9.12342C23.156 7.86268 22.2517 6.18749 20.7437 6.18749ZM9.37795 13.4393C9.19876 13.416 9.04424 13.3023 8.96879 13.1382L8.96735 13.135L6.56179 7.81249H20.7437C20.9591 7.81249 21.0883 8.0518 20.9701 8.23191L19.8299 9.96966L19.2351 10.6741C17.7813 12.3965 15.6988 13.4656 13.452 13.6434C12.4157 13.7253 11.3736 13.699 10.3428 13.5649L9.37795 13.4393Z" fill="black"/>
<path d="M7.04199 20.5417C6.14453 20.5417 5.41699 21.2692 5.41699 22.1667C5.41699 23.0641 6.14453 23.7917 7.04199 23.7917C7.93946 23.7917 8.66699 23.0641 8.66699 22.1667C8.66699 21.2692 7.93946 20.5417 7.04199 20.5417Z" fill="black"/>
<path d="M17.333 22.1667C17.333 21.2692 18.0606 20.5417 18.958 20.5417C19.8554 20.5417 20.583 21.2692 20.583 22.1667C20.583 23.0641 19.8554 23.7917 18.958 23.7917C18.0606 23.7917 17.333 23.0641 17.333 22.1667Z" fill="black"/>
<circle cx="18.2457" cy="8.14706" r="7.64706" fill="#FF0000"/>
<path d="M18.934 4.16L18.778 9.98H17.638L17.482 4.16H18.934ZM18.25 12.584C18.002 12.584 17.794 12.5 17.626 12.332C17.458 12.164 17.374 11.956 17.374 11.708C17.374 11.46 17.458 11.252 17.626 11.084C17.794 10.916 18.002 10.832 18.25 10.832C18.49 10.832 18.694 10.916 18.862 11.084C19.03 11.252 19.114 11.46 19.114 11.708C19.114 11.956 19.03 12.164 18.862 12.332C18.694 12.5 18.49 12.584 18.25 12.584Z" fill="white"/>
</g>
<defs>
<clipPath id="clip0_383_190">
<rect width="26" height="26" fill="white" transform="translate(0 0.5)"/>
</clipPath>
</defs>
</svg>
