<svg width="16" height="3" viewBox="0 0 16 3" fill="none" xmlns="http://www.w3.org/2000/svg">
<path d="M9.52381 1.5C9.52381 1.79667 9.43444 2.08668 9.267 2.33336C9.09956 2.58003 8.86158 2.77229 8.58314 2.88582C8.3047 2.99935 7.99831 3.02906 7.70272 2.97118C7.40713 2.9133 7.13561 2.77044 6.9225 2.56066C6.7094 2.35088 6.56427 2.08361 6.50547 1.79263C6.44667 1.50166 6.47685 1.20006 6.59218 0.925975C6.70752 0.651886 6.90283 0.417618 7.15342 0.252796C7.40401 0.0879736 7.69862 0 8 0C8.40414 0 8.79173 0.158036 9.0775 0.43934C9.36327 0.720644 9.52381 1.10217 9.52381 1.5ZM1.52381 0C1.22243 0 0.927816 0.0879736 0.677227 0.252796C0.426638 0.417618 0.231327 0.651886 0.115994 0.925975C0.000660241 1.20006 -0.0295163 1.50166 0.0292803 1.79263C0.0880768 2.08361 0.233206 2.35088 0.446314 2.56066C0.659423 2.77044 0.93094 2.9133 1.22653 2.97118C1.52212 3.02906 1.82851 2.99935 2.10695 2.88582C2.38539 2.77229 2.62337 2.58003 2.79081 2.33336C2.95825 2.08668 3.04762 1.79667 3.04762 1.5C3.04762 1.10217 2.88708 0.720644 2.60131 0.43934C2.31554 0.158036 1.92795 0 1.52381 0ZM14.4762 0C14.1748 0 13.8802 0.0879736 13.6296 0.252796C13.379 0.417618 13.1837 0.651886 13.0684 0.925975C12.953 1.20006 12.9229 1.50166 12.9817 1.79263C13.0405 2.08361 13.1856 2.35088 13.3987 2.56066C13.6118 2.77044 13.8833 2.9133 14.1789 2.97118C14.4745 3.02906 14.7809 2.99935 15.0593 2.88582C15.3378 2.77229 15.5758 2.58003 15.7432 2.33336C15.9106 2.08668 16 1.79667 16 1.5C16 1.10217 15.8395 0.720644 15.5537 0.43934C15.2679 0.158036 14.8803 0 14.4762 0Z" fill="white"/>
</svg>
