<svg width="224" height="45" viewBox="0 0 224 45" fill="none" xmlns="http://www.w3.org/2000/svg">
<path d="M13.08 36.78C9.69333 36.78 6.89333 35.9933 4.68 34.42C2.49333 32.82 1.30667 30.4867 1.12 27.42H10.56C10.6933 29.0467 11.4133 29.86 12.72 29.86C13.2 29.86 13.6 29.7533 13.92 29.54C14.2667 29.3 14.44 28.94 14.44 28.46C14.44 27.7933 14.08 27.26 13.36 26.86C12.64 26.4333 11.52 25.9533 10 25.42C8.18667 24.78 6.68 24.1533 5.48 23.54C4.30667 22.9267 3.29333 22.0333 2.44 20.86C1.58667 19.6867 1.17333 18.18 1.2 16.34C1.2 14.5 1.66667 12.94 2.6 11.66C3.56 10.3533 4.85333 9.36667 6.48 8.7C8.13333 8.03333 9.98667 7.7 12.04 7.7C15.5067 7.7 18.2533 8.5 20.28 10.1C22.3333 11.7 23.4133 13.9533 23.52 16.86H13.96C13.9333 16.06 13.7333 15.4867 13.36 15.14C12.9867 14.7933 12.5333 14.62 12 14.62C11.6267 14.62 11.32 14.7533 11.08 15.02C10.84 15.26 10.72 15.6067 10.72 16.06C10.72 16.7 11.0667 17.2333 11.76 17.66C12.48 18.06 13.6133 18.5533 15.16 19.14C16.9467 19.8067 18.4133 20.4467 19.56 21.06C20.7333 21.6733 21.7467 22.5267 22.6 23.62C23.4533 24.7133 23.88 26.0867 23.88 27.74C23.88 29.4733 23.4533 31.0333 22.6 32.42C21.7467 33.78 20.5067 34.8467 18.88 35.62C17.2533 36.3933 15.32 36.78 13.08 36.78ZM36.88 8.18V24.14C36.88 25.4467 37.16 26.4867 37.72 27.26C38.3067 28.0067 39.24 28.38 40.52 28.38C41.8 28.38 42.7467 28.0067 43.36 27.26C43.9733 26.4867 44.28 25.4467 44.28 24.14V8.18H53.12V24.14C53.12 26.8333 52.56 29.14 51.44 31.06C50.32 32.9533 48.7867 34.38 46.84 35.34C44.8933 36.3 42.72 36.78 40.32 36.78C37.92 36.78 35.7867 36.3 33.92 35.34C32.08 34.38 30.64 32.9533 29.6 31.06C28.56 29.1667 28.04 26.86 28.04 24.14V8.18H36.88ZM81.31 17.9C81.31 19.6867 80.8967 21.3133 80.07 22.78C79.2433 24.22 78.0167 25.3667 76.39 26.22C74.79 27.0733 72.8433 27.5 70.55 27.5H67.03V36.5H58.15V8.18H70.55C74.0167 8.18 76.67 9.06 78.51 10.82C80.3767 12.58 81.31 14.94 81.31 17.9ZM69.55 20.5C71.39 20.5 72.31 19.6333 72.31 17.9C72.31 16.1667 71.39 15.3 69.55 15.3H67.03V20.5H69.55ZM108.487 17.9C108.487 19.6867 108.073 21.3133 107.247 22.78C106.42 24.22 105.193 25.3667 103.567 26.22C101.967 27.0733 100.02 27.5 97.7266 27.5H94.2066V36.5H85.3266V8.18H97.7266C101.193 8.18 103.847 9.06 105.687 10.82C107.553 12.58 108.487 14.94 108.487 17.9ZM96.7266 20.5C98.5666 20.5 99.4866 19.6333 99.4866 17.9C99.4866 16.1667 98.5666 15.3 96.7266 15.3H94.2066V20.5H96.7266ZM121.383 29.78H129.943V36.5H112.503V8.18H121.383V29.78ZM161.138 8.18L150.978 27.9V36.5H142.098V27.9L131.938 8.18H142.098L146.618 18.22L151.138 8.18H161.138ZM198.396 8.18V36.5H189.556V22.38L185.196 36.5H177.596L173.236 22.38V36.5H164.356V8.18H175.236L181.476 25.18L187.556 8.18H198.396ZM212.483 15.26V18.74H221.283V25.42H212.483V29.42H222.483V36.5H203.603V8.18H222.483V15.26H212.483Z" fill="black"/>
</svg>
