<svg width="40" height="25" viewBox="0 0 40 25" fill="none" xmlns="http://www.w3.org/2000/svg">
<path d="M40 12.5C40 19.4097 34.4721 24.9999 27.6395 24.9999C24.7554 24.9999 22.1116 23.993 20.0172 22.3263C22.9013 20.0347 24.7211 16.493 24.7211 12.5C24.7211 8.50693 22.867 4.96527 20.0172 2.67361C22.1116 1.00695 24.7554 0 27.6395 0C34.4721 0 40 5.62499 40 12.5Z" fill="#F79E1B"/>
<path d="M20.0172 2.67361C22.867 4.96527 24.7211 8.50693 24.7211 12.5C24.7211 16.493 22.9013 20.0347 20.0172 22.3263L19.9827 22.3263C17.133 20.0694 15.279 16.493 15.279 12.5C15.279 8.507 17.133 4.96534 19.9828 2.67368L20.0172 2.67361Z" fill="#FF5F00"/>
<path d="M15.279 12.5C15.279 8.507 17.133 4.96534 19.9828 2.67368C17.8884 1.00702 15.2446 5.40083e-05 12.3605 5.40083e-05C5.5279 5.40083e-05 0 5.59032 0 12.5C0 19.4097 5.5279 25 12.3605 25C15.2446 25 17.8883 23.993 19.9827 22.3263C17.133 20.0694 15.279 16.493 15.279 12.5Z" fill="#EB001B"/>
</svg>
