<svg width="34" height="34" viewBox="0 0 34 34" fill="none" xmlns="http://www.w3.org/2000/svg">
<path d="M17 29.75C16.8187 29.7518 16.6401 29.706 16.482 29.6172C15.9109 29.2984 2.65625 21.768 2.65625 12.2188C2.65625 10.5462 3.18249 8.91614 4.16041 7.55934C5.13834 6.20254 6.51839 5.18782 8.10506 4.65893C9.69173 4.13004 11.4046 4.11378 13.001 4.61247C14.5974 5.11116 15.9965 6.0995 17 7.4375C18.0035 6.0995 19.4026 5.11116 20.999 4.61247C22.5954 4.11378 24.3083 4.13004 25.8949 4.65893C27.4816 5.18782 28.8617 6.20254 29.8396 7.55934C30.8175 8.91614 31.3438 10.5462 31.3438 12.2188C31.3438 16.2828 28.993 20.4531 24.3578 24.6234C22.2531 26.5156 19.9613 28.1888 17.518 29.6172C17.3599 29.706 17.1813 29.7518 17 29.75ZM10.625 6.375C9.07514 6.375 7.58876 6.99068 6.49284 8.08659C5.39693 9.18251 4.78125 10.6689 4.78125 12.2188C4.78125 19.55 14.6094 25.9914 17 27.4523C19.3906 25.9914 29.2188 19.55 29.2188 12.2188C29.22 10.8678 28.7531 9.55818 27.8976 8.51267C27.0421 7.46715 25.8507 6.75035 24.5263 6.4842C23.2018 6.21806 21.826 6.41902 20.6331 7.05289C19.4401 7.68676 18.5035 8.71439 17.9828 9.96094C17.9028 10.1558 17.7666 10.3225 17.5916 10.4398C17.4166 10.5571 17.2107 10.6197 17 10.6197C16.7893 10.6197 16.5834 10.5571 16.4084 10.4398C16.2334 10.3225 16.0972 10.1558 16.0172 9.96094C15.575 8.89613 14.8263 7.98676 13.8662 7.34829C12.9061 6.70982 11.778 6.37105 10.625 6.375Z" fill="black"/>
</svg>
