<svg width="35" height="36" viewBox="0 0 35 36" fill="none" xmlns="http://www.w3.org/2000/svg">
<path fill-rule="evenodd" clip-rule="evenodd" d="M20.5317 22.838C16.7771 25.8451 11.2812 25.6084 7.80079 22.1279C4.0664 18.3936 4.0664 12.339 7.80079 8.60456C11.5352 4.87017 17.5898 4.87017 21.3242 8.60456C24.8046 12.085 25.0414 17.5808 22.0342 21.3354L29.3381 28.6392C29.7531 29.0541 29.7531 29.7269 29.3381 30.1419C28.9232 30.5568 28.2504 30.5568 27.8355 30.1419L20.5317 22.838ZM9.30339 20.6254C6.39887 17.7208 6.39887 13.0117 9.30339 10.1072C12.2079 7.20265 16.9171 7.20265 19.8217 10.1072C22.724 13.0096 22.7261 17.7139 19.828 20.619C19.8259 20.6212 19.8238 20.6231 19.8215 20.6254C19.8194 20.6275 19.8173 20.6297 19.8153 20.6318C16.9101 23.5299 12.2058 23.5277 9.30339 20.6254Z" fill="black"/>
</svg>
