<svg width="35" height="35" viewBox="0 0 35 35" fill="none" xmlns="http://www.w3.org/2000/svg">
<path fill-rule="evenodd" clip-rule="evenodd" d="M27.4054 7.56596H7.83758L6.16567 4.56914C5.978 4.23275 5.62298 4.02429 5.23779 4.02429H3.11279C2.526 4.02429 2.05029 4.49999 2.05029 5.08679C2.05029 5.67359 2.526 6.14929 3.11279 6.14929H4.61389L6.26387 9.1068L10.0692 17.5264L10.073 17.5349L10.4082 18.2765L6.58769 22.3517C6.31297 22.6448 6.22698 23.0677 6.36545 23.4447C6.5039 23.8218 6.84312 24.0885 7.24218 24.1342L10.7245 24.5321C15.0804 25.0299 19.4787 25.0299 23.8344 24.5321L27.3168 24.1342C27.8998 24.0674 28.3184 23.5409 28.2518 22.9578C28.1851 22.3748 27.6585 21.9562 27.0756 22.0229L23.5931 22.4208C19.3977 22.9002 15.1613 22.9002 10.9658 22.4208L9.58383 22.2629L12.388 19.2719C12.4151 19.2428 12.4403 19.2128 12.4635 19.1818L13.53 19.3206C15.0246 19.5151 16.5351 19.5532 18.0375 19.4344C21.5416 19.1573 24.7892 17.4899 27.0566 14.8039L27.8754 13.8336C27.903 13.8011 27.9285 13.7669 27.9519 13.7312L29.4782 11.4053C30.56 9.75659 29.3774 7.56596 27.4054 7.56596ZM12.5425 17.0491C12.3082 17.0187 12.1061 16.8699 12.0074 16.6553L12.0056 16.6512L8.85984 9.69096H27.4054C27.6871 9.69096 27.856 10.0039 27.7015 10.2394L26.2104 12.5119L25.4327 13.4331C23.5315 15.6854 20.8082 17.0836 17.8701 17.316C16.5149 17.4231 15.1522 17.3887 13.8042 17.2133L12.5425 17.0491Z" fill="black"/>
<path d="M9.48779 26.3368C8.31418 26.3368 7.36279 27.2882 7.36279 28.4618C7.36279 29.6354 8.31418 30.5868 9.48779 30.5868C10.6614 30.5868 11.6128 29.6354 11.6128 28.4618C11.6128 27.2882 10.6614 26.3368 9.48779 26.3368Z" fill="black"/>
<path d="M22.9462 28.4618C22.9462 27.2882 23.8976 26.3368 25.0712 26.3368C26.2447 26.3368 27.1962 27.2882 27.1962 28.4618C27.1962 29.6354 26.2447 30.5868 25.0712 30.5868C23.8976 30.5868 22.9462 29.6354 22.9462 28.4618Z" fill="black"/>
</svg>
