<svg width="50" height="16" viewBox="0 0 50 16" fill="none" xmlns="http://www.w3.org/2000/svg">
<path d="M36.3495 0.659404C35.5506 0.346017 34.2835 0 32.7167 0C28.7168 0 25.9001 2.10895 25.8829 5.12412C25.8496 7.3487 27.8995 8.58429 29.4327 9.32603C30.9997 10.084 31.5324 10.5787 31.5324 11.2543C31.5164 12.2919 30.2661 12.7702 29.1 12.7702C27.4829 12.7702 26.6164 12.5236 25.2997 11.9463L24.7664 11.6989L24.1996 15.1757C25.1495 15.6036 26.8997 15.9834 28.7168 16C32.9667 16 35.7336 13.9237 35.7663 10.7105C35.7825 8.94739 34.7001 7.59639 32.3665 6.49242C30.9499 5.78374 30.0823 5.30589 30.0823 4.58078C30.0989 3.9216 30.8161 3.24643 32.4152 3.24643C33.732 3.21336 34.6994 3.52631 35.4323 3.83947L35.7987 4.00394L36.3495 0.659404Z" fill="white"/>
<path d="M21.6666 15.7692H17.6163L20.1497 0.280755H24.1998L21.6666 15.7692Z" fill="white"/>
<path fill-rule="evenodd" clip-rule="evenodd" d="M46.7324 0.280755H43.5995C42.6333 0.280755 41.8993 0.560634 41.4825 1.56583L35.4662 15.7689H39.7161C39.7161 15.7689 40.4158 13.8573 40.5662 13.4456H45.7665C45.8828 13.9894 46.2498 15.7689 46.2498 15.7689H50L46.7324 0.280755ZM41.7328 10.2822C42.0663 9.39238 43.3498 5.94864 43.3498 5.94864C43.3431 5.9619 43.3953 5.81882 43.4731 5.60547L43.4741 5.60286L43.4747 5.60115C43.591 5.28247 43.7635 4.80945 43.8827 4.46581L44.1658 5.80038C44.1658 5.80038 44.9328 9.50779 45.0994 10.2822H41.7328Z" fill="white"/>
<path d="M14.2333 0.280755L10.2666 10.8424L9.83318 8.70036L9.83279 8.69902L8.41654 1.5827C8.18332 0.593484 7.46658 0.313386 6.58329 0.280755H0.0666676L0 0.593703C1.58938 0.995568 3.01093 1.57465 4.25651 2.29468L7.86659 15.7528H12.1497L18.5162 0.280755H14.2333Z" fill="white"/>
</svg>
